<svg xmlns="http://www.w3.org/2000/svg" viewBox="0 0 48 48" fill="none">
  <circle cx="24" cy="24" r="22" stroke="#2c3e50" stroke-width="4" fill="#f5f6fa"/>
  <path d="M24 26c4.418 0 8-3.134 8-7s-3.582-7-8-7-8 3.134-8 7 3.582 7 8 7z" fill="#2c3e50"/>
  <path d="M12 36c0-4.418 5.373-8 12-8s12 3.582 12 8v2a2 2 0 0 1-2 2H14a2 2 0 0 1-2-2v-2z" fill="#2c3e50"/>
  <rect x="32" y="10" width="8" height="8" rx="2" fill="#fbc531" stroke="#e1b12c" stroke-width="2"/>
  <path d="M36 14h4" stroke="#e1b12c" stroke-width="2" stroke-linecap="round"/>
  <path d="M38 12v4" stroke="#e1b12c" stroke-width="2" stroke-linecap="round"/>
</svg>
